<?xml version="1.0" encoding="UTF-8"?>
<svg width="86px" height="36px" viewBox="0 0 86 36" version="1.1" xmlns="http://www.w3.org/2000/svg" xmlns:xlink="http://www.w3.org/1999/xlink">
    <title>slay</title>
    <g id="Page-1" stroke="none" stroke-width="1" fill="none" fill-rule="evenodd">
        <g id="Desktop-HD" transform="translate(-311.000000, -36.000000)" fill="#F9ED06" fill-rule="nonzero">
            <g id="slay" transform="translate(311.000000, 36.000000)">
                <path d="M10.7802817,29.9529675 C17.0788732,29.9529675 20.228169,26.324748 20.228169,22.1321389 C20.228169,18.5039194 17.2807512,17.012318 14.1314554,15.762598 C11.8704225,14.8756999 11.1032864,14.4322508 11.1032864,13.7066069 C11.1032864,12.9406495 11.7492958,12.4568869 13.000939,12.4568869 C14.9793427,12.4568869 17.2807512,13.3840985 19.1784038,14.7950728 L22.8525822,10.1993281 C20.8741784,8.58678611 17.3615023,7.13549832 13.4046948,7.13549832 C7.38873239,7.13549832 3.87605634,10.5218365 3.87605634,14.8756999 C3.87605634,18.3426652 6.54084507,19.8745801 10.0131455,21.2452408 C12.1530516,22.0918253 13.000939,22.5352744 13.000939,23.3012318 C13.000939,24.1075028 12.3549296,24.6315789 11.0629108,24.6315789 C8.84225352,24.6315789 5.89483568,23.5834267 3.79530516,21.6886898 L0,26.1634938 C2.62441315,28.5016797 6.62159624,29.9529675 10.7802817,29.9529675 Z" id="Path"></path>
                <polygon id="Path" points="21.4394366 29.4288914 29.1107981 29.4288914 37.0244131 0 29.3530516 0"></polygon>
                <path d="M40.4159624,29.8723404 C42.9596244,29.8723404 44.857277,28.8241881 46.714554,27.0907055 L46.1089202,29.4288914 L53.6591549,29.4288914 L56.8892019,17.4154535 C57.171831,16.3269877 57.3333333,15.2788354 57.3333333,14.2709966 C57.3333333,9.91713326 54.143662,7.33706607 47.6028169,7.33706607 C44.4535211,7.33706607 41.3042254,7.86114222 39.0028169,8.66741321 L40.0929577,14.2306831 C41.62723,13.6259798 43.9286385,13.1422172 45.9877934,13.1422172 C48.6525822,13.1422172 49.742723,14.0694289 49.742723,15.4804031 C49.742723,16.0044793 49.6215962,16.4479283 49.5408451,16.8107503 L49.4600939,17.0929451 C47.7239437,16.568869 45.9070423,16.2463606 43.9286385,16.2463606 C38.1549296,16.2463606 34.3192488,19.1489362 34.3192488,23.9462486 C34.3192488,27.5744681 36.8225352,29.8723404 40.4159624,29.8723404 Z M43.9690141,25.1556551 C42.6769953,25.1556551 41.7887324,24.3896976 41.7887324,23.1399776 C41.7887324,21.1646137 43.3633803,19.9955207 45.7859155,19.9955207 C46.8356808,19.9955207 47.8046948,20.1970885 48.6525822,20.4792833 L48.4507042,21.2049272 C47.8450704,23.4221725 45.9474178,25.1556551 43.9690141,25.1556551 Z" id="Shape"></path>
                <path d="M62.1784038,36 C66.458216,36 69.3248826,34.2262038 72.4741784,29.3079507 L86,7.61926092 L77.9248826,7.61926092 L70.5765258,20.7211646 L69.6882629,7.61926092 L61.8957746,7.61926092 L64.7220657,29.106383 C64.0760563,29.7513998 63.5511737,29.912654 62.8244131,29.912654 C61.8553991,29.912654 60.8056338,29.549832 59.7962441,28.8241881 L56.3643192,34.4277716 C57.858216,35.3952968 59.6347418,36 62.1784038,36 Z" id="Path"></path>
            </g>
        </g>
    </g>
</svg>